# xmcd
#
# Track frame offsets: 
#        150
#        20448
#        34866
#        50679
#        58503
#        72972
#        89820
#        109028
#        126075
#        137596
#        149267
#        167633
#        175997
#        194134
#        212279
#
# Disc length: 2934 seconds
#
# Revision: 0
# Processed by: cddbd v1.4PL0 Copyright (c) Steve Scherf et al.
# Submitted via: ExactAudioCopy v0.90b3
#
DISCID=df0b740f
DTITLE=Tom Waits - Alice
DYEAR=2002
DGENRE=Blues
TTITLE0=Alice
TTITLE1=Everything you can think
TTITLE2=Flower's grave
TTITLE3=No one knows I'm gone
TTITLE4=Kommienezuspadt
TTITLE5=Poor Edward
TTITLE6=Table Top Joe
TTITLE7=Lost in the harbour
TTITLE8=We're all mad here
TTITLE9=Watch her disappear
TTITLE10=Reeperbahn
TTITLE11=I'm still here
TTITLE12=Fish and bird
TTITLE13=Barcarolle
TTITLE14=Fawn
EXTD=
EXTT0=
EXTT1=
EXTT2=
EXTT3=
EXTT4=
EXTT5=
EXTT6=
EXTT7=
EXTT8=
EXTT9=
EXTT10=
EXTT11=
EXTT12=
EXTT13=
EXTT14=
PLAYORDER=
